<svg xmlns="http://www.w3.org/2000/svg" viewBox="0 0 92.78 92.54"><defs><style>.cls-1{fill:#cdcfcf;fill-rule:evenodd;}</style></defs><g id="Layer_2" data-name="Layer 2"><g id="Layer_1-2" data-name="Layer 1"><path class="cls-1" d="M10.08,40.75C1.18,28.16-2.18,16.44,1.42,5.81,2.86,1.59,3.54,1.68,8,.71,21.85-2.3,37.66,4.27,51.55,20c7.1,8,8.86,18.12,2.83,27.47l-.07.11,1.88,1.89,2.92-2.92a1,1,0,0,1,1.36,0L89.88,72.34c10.05,8.84-8.56,27.35-17.28,17.28L47,60a1,1,0,0,1,0-1.36l2.72-2.72-1.87-1.87a26.49,26.49,0,0,1-8.67,3.51C27.85,59.64,16.17,49.37,10.08,40.75Z"/></g></g></svg>