<svg xmlns="http://www.w3.org/2000/svg" viewBox="0 0 95.44 87.71"><defs><style>.cls-1{fill:#cdcfcf;fill-rule:evenodd;}</style></defs><g id="Layer_2" data-name="Layer 2"><g id="Layer_1-2" data-name="Layer 1"><path class="cls-1" d="M7.76,0H50.32l8,3.84H66.4L71.61,9v3h22a1.81,1.81,0,0,1,1.8,1.8h0a1.8,1.8,0,0,1-1.8,1.79h-22v3l-5.21,5.2H58.28l-8,4H35.26L34.94,30h2.18a1.35,1.35,0,0,1,1.36,1.56l-1,8.3a1.8,1.8,0,0,1-1.74,1.55H33.27l-2,13.45,6.75,2.79c3.64,1.5,5.57,3.47,5.57,7.61V77.76c0,6.42-2.39,9.95-9.07,9.95H12.82c-6,0-9.27-.95-9.27-7.84V64.81c0-3.06,2.14-6.9,6.5-9.6l5.34-27.42H7.76A7.78,7.78,0,0,1,0,20V7.76A7.78,7.78,0,0,1,7.76,0Zm2,15.52a2.31,2.31,0,0,0,0,4.61h12a2.31,2.31,0,0,0,0-4.61Zm0-7.95a2.31,2.31,0,0,0,0,4.61h12a2.31,2.31,0,0,0,0-4.61Z"/></g></g></svg>