<svg xmlns="http://www.w3.org/2000/svg" viewBox="0 0 96.97 96.09"><defs><style>.cls-1{fill:#cdcfcf;fill-rule:evenodd;}</style></defs><g id="Layer_2" data-name="Layer 2"><g id="Layer_1-2" data-name="Layer 1"><path class="cls-1" d="M30.31,35.18h9.57V32.09a2,2,0,0,1,2-2H55a2,2,0,0,1,2,2v3.09h11.8A23.73,23.73,0,0,1,92.41,58.84V79h2.85A1.72,1.72,0,0,1,97,80.73V94.38a1.72,1.72,0,0,1-1.71,1.71H63.51a1.72,1.72,0,0,1-1.71-1.71V80.73A1.72,1.72,0,0,1,63.51,79h3.15V61.08H57v2.73a2,2,0,0,1-2,2H41.84a2,2,0,0,1-2-2V61.08H28.19A23.73,23.73,0,0,1,4.53,37.42V17.07H1.71A1.72,1.72,0,0,1,0,15.36V1.71A1.72,1.72,0,0,1,1.71,0H33.46a1.72,1.72,0,0,1,1.71,1.71V15.36a1.72,1.72,0,0,1-1.71,1.71H30.28V35.18Z"/></g></g></svg>