<svg xmlns="http://www.w3.org/2000/svg" viewBox="0 0 99.27 95"><defs><style>.cls-1{fill:#cdcfcf;fill-rule:evenodd;}</style></defs><g id="Layer_2" data-name="Layer 2"><g id="Layer_1-2" data-name="Layer 1"><path class="cls-1" d="M47,94.89a20.38,20.38,0,0,1-6-1.62C40.31,92.94,7.81,75.2,4,73.05a8,8,0,0,1-3.7-3.4A2.75,2.75,0,0,1,0,68.26a2.81,2.81,0,0,1,.3-1.43,6.6,6.6,0,0,1,2.94-2.69C3.87,63.82,19.86,57.24,23,56L38,15.19C39.52,10.68,42.22,3,42.35,2.83A5.6,5.6,0,0,1,43.11,2C45.93-.66,53.35-.66,56.17,2a6.21,6.21,0,0,1,.76.86c.13.21,2.86,7.92,4.42,12.42L76.12,56c2.74,1,19.22,7.85,19.91,8.2a6.74,6.74,0,0,1,3,2.79,2.8,2.8,0,0,1,.27,1.37,2.88,2.88,0,0,1-.34,1.48,7.09,7.09,0,0,1-2.3,2.47c-.62.42-35.9,19.77-38,20.86a19.69,19.69,0,0,1-6.46,1.78,36.1,36.1,0,0,1-5.2,0ZM57.71,21.73a23,23,0,0,1-4.82,1.14,39.66,39.66,0,0,1-5.44.11h0a23.29,23.29,0,0,1-6-1.3L36.17,36l.62.32a28.85,28.85,0,0,0,8.94,2.35A49.79,49.79,0,0,0,54,38.54,27.06,27.06,0,0,0,63,36L57.71,21.73ZM69.47,53.58c-4.21,3-11.75,4.92-20.11,4.86-1.16,0-2.62-.09-3.27-.1v0c-7-.49-12.9-2.33-16.39-4.86l-5.19,14c5.91,5,19.24,7.7,32,6.3,6.51-.7,12.2-2.4,16.13-4.78a17.11,17.11,0,0,0,2.29-1.65l-.28.13Z"/></g></g></svg>