<svg xmlns="http://www.w3.org/2000/svg" viewBox="0 0 162.74 73.98"><defs><style>.cls-1{fill:#cccece;}</style></defs><g id="Layer_2" data-name="Layer 2"><g id="Layer_1-2" data-name="Layer 1"><path class="cls-1" d="M162.74,14.71V17l-43.08,3V30.91H110.5V26.54H38.67v4.89H29.23V26.54c-3.77,1.74-2.45,5.9-2.45,5.9l24,35.91a6.88,6.88,0,0,1-7.34,1.37A9.62,9.62,0,0,1,38.76,66L25.36,46.15a3.9,3.9,0,0,0-.6-.68l-.33-.29a3.42,3.42,0,0,0-5.53,1.53c-.84,2.55-4.48,13.19-8.75,19.81A18,18,0,0,1,9,68.1c-1.29,1.94-3,4.12-4,5.25A1.73,1.73,0,0,1,3.73,74a1.72,1.72,0,0,1-.32,0A1.76,1.76,0,0,1,2,71.82l.67-2.64,9-49.35H5.63v5.75H0v-21H5.63v5.75h7.81l.69-3.72a2.3,2.3,0,0,1,2.25-1.88H29.23V0H39V4.27h71.2V.7h9.47V11.89Z"/></g></g></svg>