<svg xmlns="http://www.w3.org/2000/svg" viewBox="0 0 140 77.76"><defs><style>.cls-1{fill:#cdcfcf;fill-rule:evenodd;}</style></defs><g id="Layer_2" data-name="Layer 2"><g id="Layer_1-2" data-name="Layer 1"><path class="cls-1" d="M.21,15c.54,1.38,1.62,1.3,3.33,1.28,3.83,0,25.76-.15,27.66.05l2.7-9.2c-1.76-.17-24.08,0-27.89,0-4.34,0-6-.71-6,3.25A22.55,22.55,0,0,0,.21,15ZM73.74,53.11c1.65,1.68,6.17.85,8.7.41A22.27,22.27,0,0,0,90,50.86c2-1.11,3.32-2.51,2.64-4.94a3.41,3.41,0,0,0-.37-.93s-.27-.4-.27-.4a1.52,1.52,0,0,0-.25-.26,38.13,38.13,0,0,1-3.53-2.87c-2.11-2.05-4.93-6-5.59-8.32-1.4,0-2.75,1.13-3.57,1.67-2.56,1.64-3.84,7.59-4.75,10.54C73.46,47.91,71.73,51.05,73.74,53.11Zm50.9-29.23c2.18-.47,11.55-2.89,13.29-4.18,2-1.49,2.77-3.45,1.32-5.95-1.05-1.85-3.42-2.46-5.56-3-2.88-.75-6.21-1.63-9-2.54ZM39.38,20c.8-2.81,1.7-5.68,2.57-8.47l2.48-8.2c-1.5,0-3,0-4.53,0-4.73,0-3.16-.54-5.76,7.94C30.9,21.81,30.64,19.61,39.38,20Z"/><path class="cls-1" d="M40.67,74.82a5.37,5.37,0,0,0,4.52,2.83c2.4.06,4.83,0,7.24,0l2.54,0c2.18.11,5.6.18,7.56-.48a6.88,6.88,0,0,0,1.76-1c.16-.11.32-.24.46-.35,7.11-5.35,5.9-6.55,5.9-6.55-.12-.37-1.49-4.76-1.88-6.16-1.2-4.32.62-8.93,2-13,1-3.06,3.37-12.26,5-14.68l2-2a10.22,10.22,0,0,1,5.87-1.93c5.28,0,10.52,0,15.81,0,4.68,0,10.6.58,14.79-1.08,2.29-.9,3.36-2.2,4.74-3.16a6.64,6.64,0,0,0,.56-.41l1.64-1.35c.26-.22.31-.23.55-.42l1.58-1.4,0-15.71-3.1-2.47c-.32-.31-.07-.14-.51-.47l-4.39-3.67c-3-2-9.23-1.38-13.27-1.38-9.75,0-19.51,0-29.27,0C69.85.08,70.4,0,69,3.72,68.33,5.48,67.7,7.26,67,9c-.94,2.39-.72,3.91-3.42,3.93-7.07,0-6.35-.05-4.15-7.24C61.48-1,61,.11,52.72.1,50.65.1,48.55.11,47,1.65c-1.74,1.81-1.66,2.4-2.43,5L41.22,17.9c-1,3.72-1.59,3.36-.27,5.48l4.29,6.73c.61,1.05.7,1.41,2.21,1.52a3.53,3.53,0,0,1,3.37,2.12,3.26,3.26,0,0,1,.36,1.4c.07,1.49-7.64,25.75-8.41,28.05-.61,1.86-1.21,3.74-1.77,5.64C40.38,70.93,39.62,72.64,40.67,74.82ZM86.91,12.25c1.2-3,1.24-5.09,3.22-4.21,1.79.79.74,2.2-.39,5.26-.55,1.51-1.18,5.1-3.31,4.25C84.59,16.82,86.33,13.69,86.91,12.25Zm-5.84-.08c.54-1.43,1.18-5.1,3.21-4.19s-.36,4.83-1.45,8.11c-.3.95-.92,1.93-2.16,1.48C78.69,16.83,80.45,13.8,81.07,12.17Zm-7,2.89c.37-1,.74-1.87,1.1-2.84s.68-1.81,1-2.77.78-2,2.17-1.5C80.57,8.68,78,13,77,16.16,76.07,18.75,73.07,17.8,74.1,15.06Z"/></g></g></svg>